<?xml version="1.0" encoding="UTF-8"?>
<svg width="69px" height="85px" viewBox="0 0 69 85" version="1.1" xmlns="http://www.w3.org/2000/svg" xmlns:xlink="http://www.w3.org/1999/xlink">
    <!-- Generator: Sketch 53 (72520) - https://sketchapp.com -->
    <title>Combined Shape</title>
    <desc>Created with Sketch.</desc>
    <g id="Page-1" stroke="none" stroke-width="1" fill="none" fill-rule="evenodd">
        <g id="Artboard" transform="translate(-69.000000, -55.000000)" fill="#FFFFFF" stroke="#FFFFFF">
            <g id="Group" transform="translate(70.000000, 56.000000)">
                <path d="M67,66.531746 L66.9994811,66.531746 C66.9280024,75.6023709 59.4814544,82.9407637 50.2831683,83 L50.2831683,16.6555184 L33.6105611,16.6555184 L33.6105611,33.2 L16.8052805,33.2 L16.8052805,16.6555184 L0,16.6555184 L0,0 L50.4158416,0 L50.4158416,0.00136029956 C59.5529541,0.129905964 66.9283464,7.44127991 66.9994811,16.468254 L67,16.468254 L67,66.531746 Z M33.3333333,66.9464883 L50,66.9464883 L50,83 L0,83 L0,66.9464883 L16.6666667,66.9464883 L16.6666667,51 L33.3333333,51 L33.3333333,66.9464883 Z" id="Combined-Shape"></path>
            </g>
        </g>
    </g>
</svg>